<?xml version="1.0" encoding="utf-8"?>
<!-- Generator: Adobe Illustrator 18.1.1, SVG Export Plug-In . SVG Version: 6.00 Build 0)  -->
<!DOCTYPE svg PUBLIC "-//W3C//DTD SVG 1.1//EN" "http://www.w3.org/Graphics/SVG/1.1/DTD/svg11.dtd">
<svg version="1.1" id="Ebene_1" xmlns="http://www.w3.org/2000/svg" xmlns:xlink="http://www.w3.org/1999/xlink" x="0px" y="0px"
	 viewBox="102 100.9 532 616" enable-background="new 102 100.9 532 616" xml:space="preserve">
<polygon fill="#FFFFEB" points="102,298.9 102,397.9 110,332.9 "/>
<polygon fill="#FFFFEB" points="126,244.9 102,298.9 126,260.9 "/>
<polygon fill="#FFEFDB" points="102,595.9 102,694.9 126,668.9 "/>
<polygon fill="#FFFEEA" points="102,199.9 102,298.9 126,244.9 "/>
<polygon fill="#FFF8E3" points="102,496.9 102,508.9 134,492.9 "/>
<polygon fill="#FFF4E1" points="102,595.9 126,668.9 142,660.9 "/>
<polygon fill="#FFFDE9" points="102,397.9 102,496.9 134,404.9 "/>
<polygon fill="#FFFFEB" points="102,199.9 102,100.9 102,100.9 "/>
<polygon fill="#FFF8E4" points="102,100.9 102,199.9 158,132.9 "/>
<polygon fill="#FFFFEC" points="102,100.9 102,100.9 158,132.9 "/>
<polygon fill="#FFFEEA" points="102,496.9 134,492.9 134,404.9 "/>
<polygon fill="#FFFFEC" points="110,332.9 102,397.9 134,404.9 "/>
<polygon fill="#FFF2DF" points="102,694.9 102,793.9 174,732.9 "/>
<polygon fill="#FFFAE5" points="126,244.9 126,260.9 182,252.9 "/>
<polygon fill="#FFF7E2" points="134,404.9 134,492.9 182,436.9 "/>
<polygon fill="#FFFAE5" points="102,199.9 126,244.9 182,204.9 "/>
<polygon fill="#FFF1DE" points="126,668.9 102,694.9 174,732.9 "/>
<polygon fill="#FFF5E2" points="102,508.9 102,595.9 190,580.9 "/>
<polygon fill="#FFFAE6" points="182,204.9 126,244.9 182,252.9 "/>
<polygon fill="#FFFAE6" points="158,132.9 102,199.9 182,204.9 "/>
<polygon fill="#FFF2DE" points="142,660.9 126,668.9 174,732.9 "/>
<polygon fill="#FFF0DC" points="102,595.9 142,660.9 190,580.9 "/>
<polygon fill="#FFF4E1" points="134,492.9 102,508.9 190,580.9 "/>
<polygon fill="#FFFAE5" points="102,100.9 158,132.9 201,100.9 "/>
<polygon fill="#FFFDE9" points="102,298.9 110,332.9 126,260.9 "/>
<polygon fill="#FFF5E1" points="142,660.9 174,732.9 206,684.9 "/>
<polygon fill="#FFF3E0" points="198,652.9 142,660.9 206,684.9 "/>
<polygon fill="#FFFAE5" points="110,332.9 134,404.9 206,356.9 "/>
<polygon fill="#FFFDE9" points="182,252.9 110,332.9 206,356.9 "/>
<polygon fill="#FFFDE9" points="134,404.9 182,436.9 206,356.9 "/>
<polygon fill="#FFEFDC" points="190,580.9 142,660.9 198,652.9 "/>
<polygon fill="#FFFFEB" points="126,260.9 110,332.9 182,252.9 "/>
<polygon fill="#FFE9D6" points="206,684.9 174,732.9 230,700.9 "/>
<polygon fill="#FFFBE7" points="206,356.9 182,436.9 230,412.9 "/>
<polygon fill="#FFFAE5" points="158,132.9 182,204.9 246,164.9 "/>
<polygon fill="#FFF9E4" points="182,204.9 230,196.9 246,164.9 "/>
<polygon fill="#FFF7E2" points="201,100.9 158,132.9 246,164.9 "/>
<polygon fill="#FFF9E4" points="182,204.9 182,252.9 230,196.9 "/>
<polygon fill="#FFF4E0" points="230,700.9 174,732.9 254,740.9 "/>
<polygon fill="#FFF9E4" points="270,556.9 190,580.9 278,580.9 "/>
<polygon fill="#FFF9E4" points="190,580.9 278,628.9 278,580.9 "/>
<polygon fill="#FFF5E0" points="190,580.9 198,652.9 278,628.9 "/>
<polygon fill="#FFFAE6" points="246,164.9 230,196.9 278,172.9 "/>
<polygon fill="#FFF9E4" points="206,356.9 230,412.9 254,412.9 "/>
<polygon fill="#FFF0DC" points="198,652.9 206,684.9 230,700.9 "/>
<polygon fill="#FFF1DD" points="182,436.9 134,492.9 190,580.9 "/>
<polygon fill="#FFFAE5" points="230,196.9 182,252.9 286,228.9 "/>
<polygon fill="#FFF9E4" points="278,212.9 230,196.9 286,228.9 "/>
<polygon fill="#FFFAE6" points="278,172.9 230,196.9 286,188.9 "/>
<polygon fill="#FFFDE9" points="230,196.9 278,212.9 286,188.9 "/>
<polygon fill="#FFF1DE" points="198,652.9 230,700.9 278,628.9 "/>
<polygon fill="#FFF9E4" points="182,436.9 190,580.9 270,556.9 "/>
<polygon fill="#FFFEEA" points="182,436.9 270,556.9 294,524.9 "/>
<polygon fill="#FFFFEB" points="201,100.9 246,164.9 300,100.9 "/>
<polygon fill="#FFF8E3" points="278,580.9 278,628.9 294,620.9 "/>
<polygon fill="#FFF9E4" points="230,412.9 182,436.9 294,524.9 "/>
<polygon fill="#FFF9E4" points="270,556.9 278,580.9 310,572.9 "/>
<polygon fill="#FFF4E0" points="254,412.9 294,524.9 302,444.9 "/>
<polygon fill="#FFFCE7" points="246,164.9 278,172.9 300,100.9 "/>
<polygon fill="#FFFCE8" points="254,412.9 230,412.9 294,524.9 "/>
<polygon fill="#FFFEE9" points="300,100.9 278,172.9 318,116.9 "/>
<polygon fill="#FFF7E2" points="278,580.9 294,620.9 310,572.9 "/>
<polygon fill="#FFFAE5" points="294,524.9 270,556.9 310,572.9 "/>
<polygon fill="#FFF9E4" points="182,252.9 206,356.9 286,228.9 "/>
<polygon fill="#FFF8E4" points="254,412.9 302,444.9 326,412.9 "/>
<polygon fill="#FFFAE6" points="286,188.9 286,228.9 334,228.9 "/>
<polygon fill="#FFFCE7" points="286,188.9 278,212.9 286,228.9 "/>
<polygon fill="#FFEFDC" points="230,700.9 254,740.9 278,628.9 "/>
<polygon fill="#FFF2DF" points="310,572.9 294,620.9 358,580.9 "/>
<polygon fill="#FFF5E1" points="350,572.9 310,572.9 358,580.9 "/>
<polygon fill="#FFFAE6" points="294,524.9 310,572.9 350,572.9 "/>
<polygon fill="#FFF8E4" points="206,356.9 254,412.9 326,412.9 "/>
<polygon fill="#FFF8E4" points="286,228.9 206,356.9 326,412.9 "/>
<polygon fill="#FFFFEB" points="278,172.9 286,188.9 318,116.9 "/>
<polygon fill="#FFFFEC" points="350,572.9 358,580.9 390,540.9 "/>
<polygon fill="#FFF8E4" points="294,524.9 350,572.9 390,540.9 "/>
<polygon fill="#FFFAE5" points="300,100.9 318,116.9 399,100.9 "/>
<polygon fill="#FFF9E4" points="286,228.9 326,412.9 334,228.9 "/>
<polygon fill="#FFFFEC" points="318,116.9 286,188.9 334,228.9 "/>
<polygon fill="#FFF1DE" points="278,628.9 254,740.9 294,620.9 "/>
<polygon fill="#FFF7E2" points="302,444.9 294,524.9 390,540.9 "/>
<polygon fill="#FFEDDA" points="294,620.9 254,740.9 422,716.9 "/>
<polygon fill="#FFF5E0" points="254,740.9 414,748.9 422,716.9 "/>
<polygon fill="#FFEBD8" points="358,580.9 294,620.9 422,716.9 "/>
<polygon fill="#FFFFEB" points="318,116.9 334,228.9 399,100.9 "/>
<polygon fill="#FFF5E0" points="326,412.9 302,444.9 390,540.9 "/>
<polygon fill="#FFFDE9" points="390,540.9 358,580.9 462,620.9 "/>
<polygon fill="#FFFCE8" points="358,580.9 422,716.9 462,620.9 "/>
<polygon fill="#FFFAE5" points="326,412.9 390,540.9 462,444.9 "/>
<polygon fill="#FFF5E2" points="422,716.9 414,748.9 470,732.9 "/>
<polygon fill="#FFFCE7" points="399,100.9 334,228.9 470,172.9 "/>
<polygon fill="#FFFBE7" points="454,548.9 390,540.9 462,620.9 "/>
<polygon fill="#FFFEEA" points="390,540.9 454,548.9 462,444.9 "/>
<polygon fill="#FFFFEC" points="399,100.9 470,172.9 494,140.9 "/>
<polygon fill="#FFF8E4" points="399,100.9 494,140.9 498,100.9 "/>
<polygon fill="#FFFAE5" points="454,548.9 462,620.9 518,620.9 "/>
<polygon fill="#FFEFDC" points="462,620.9 422,716.9 470,732.9 "/>
<polygon fill="#FFFFEC" points="334,228.9 326,412.9 462,444.9 "/>
<polygon fill="#FFFCE8" points="334,228.9 462,444.9 550,308.9 "/>
<polygon fill="#FFF5E0" points="550,300.9 334,228.9 550,308.9 "/>
<polygon fill="#FFF6E2" points="470,172.9 334,228.9 550,300.9 "/>
<polygon fill="#FFF4E1" points="462,620.9 470,732.9 518,620.9 "/>
<polygon fill="#FFF9E4" points="454,548.9 518,620.9 558,540.9 "/>
<polygon fill="#FFFAE5" points="462,444.9 454,548.9 558,540.9 "/>
<polygon fill="#FFF3E0" points="518,620.9 558,652.9 558,620.9 "/>
<polygon fill="#FFF8E4" points="550,300.9 550,308.9 558,292.9 "/>
<polygon fill="#FFF5E0" points="470,172.9 550,300.9 558,292.9 "/>
<polygon fill="#FFF5E1" points="550,308.9 462,444.9 558,404.9 "/>
<polygon fill="#FFF1DD" points="518,620.9 470,732.9 558,652.9 "/>
<polygon fill="#FFFDE9" points="494,140.9 470,172.9 582,204.9 "/>
<polygon fill="#FFF3DF" points="470,172.9 558,292.9 582,204.9 "/>
<polygon fill="#FFF5E1" points="518,620.9 558,620.9 558,540.9 "/>
<polygon fill="#FFF3DF" points="558,292.9 550,308.9 590,308.9 "/>
<polygon fill="#FFF1DD" points="558,404.9 462,444.9 590,452.9 "/>
<polygon fill="#FFF6E2" points="462,444.9 558,540.9 590,452.9 "/>
<polygon fill="#FFFFEB" points="498,100.9 494,140.9 597,100.9 "/>
<polygon fill="#FFEFDB" points="558,652.9 470,732.9 606,692.9 "/>
<polygon fill="#FFF8E3" points="494,140.9 582,204.9 597,100.9 "/>
<polygon fill="#FFFFEB" points="550,308.9 558,404.9 590,308.9 "/>
<polygon fill="#FFFBE7" points="582,204.9 558,292.9 622,268.9 "/>
<polygon fill="#FFF8E3" points="558,292.9 590,308.9 622,268.9 "/>
<polygon fill="#FFFFEB" points="558,540.9 558,620.9 630,572.9 "/>
<polygon fill="#FFFAE5" points="622,268.9 590,308.9 622,316.9 "/>
<polygon fill="#FFFCE7" points="622,268.9 622,316.9 646,300.9 "/>
<polygon fill="#FFF8E3" points="590,308.9 558,404.9 622,316.9 "/>
<polygon fill="#FFEFDB" points="558,404.9 590,452.9 654,428.9 "/>
<polygon fill="#FFF2DE" points="662,676.9 606,692.9 662,716.9 "/>
<polygon fill="#FFFDE9" points="597,100.9 582,204.9 662,164.9 "/>
<polygon fill="#FFFEE9" points="622,316.9 558,404.9 662,364.9 "/>
<polygon fill="#FFFAE5" points="558,404.9 654,428.9 662,364.9 "/>
<polygon fill="#FFF8E4" points="590,452.9 558,540.9 630,572.9 "/>
<polygon fill="#FFF9E5" points="558,620.9 558,652.9 606,692.9 "/>
<polygon fill="#FFECD8" points="630,572.9 606,692.9 662,676.9 "/>
<polygon fill="#FFFEEA" points="646,300.9 622,316.9 662,364.9 "/>
<polygon fill="#FFF7E2" points="558,620.9 606,692.9 630,572.9 "/>
<polygon fill="#FFFDE9" points="582,204.9 622,268.9 686,220.9 "/>
<polygon fill="#FFF6E2" points="662,164.9 582,204.9 686,220.9 "/>
<polygon fill="#FFFFEC" points="597,100.9 662,164.9 696,100.9 "/>
<polygon fill="#FFF8E3" points="630,572.9 662,676.9 702,620.9 "/>
<polygon fill="#FFF7E2" points="622,268.9 646,300.9 686,220.9 "/>
<polygon fill="#FFF0DC" points="590,452.9 630,572.9 654,428.9 "/>
<polygon fill="#FFECD8" points="654,428.9 630,572.9 718,540.9 "/>
<polygon fill="#FFF5E2" points="630,572.9 702,620.9 718,540.9 "/>
<polygon fill="#FFFAE5" points="606,692.9 470,732.9 662,716.9 "/>
<polygon fill="#653520" points="662,716.9 597,1380.9 696,1380.9 "/>
<polygon fill="#653520" points="470,732.9 597,1380.9 662,716.9 "/>
</svg>
